<svg xmlns="http://www.w3.org/2000/svg" xmlns:xlink="http://www.w3.org/1999/xlink" width="500" zoomAndPan="magnify" viewBox="0 0 375 374.999991" height="500" preserveAspectRatio="xMidYMid meet" version="1.0"><defs><clipPath id="da82bc5a07"><path d="M 3.699219 3.699219 L 370.449219 3.699219 L 370.449219 370.449219 L 3.699219 370.449219 Z M 3.699219 3.699219 " clip-rule="nonzero"/></clipPath></defs><g clip-path="url(#da82bc5a07)"><path fill="#917898" d="M 370.449219 187.074219 C 370.449219 190.078125 370.378906 193.074219 370.230469 196.074219 C 370.082031 199.070312 369.863281 202.0625 369.566406 205.050781 C 369.273438 208.035156 368.90625 211.015625 368.464844 213.980469 C 368.027344 216.949219 367.511719 219.90625 366.925781 222.851562 C 366.339844 225.792969 365.683594 228.722656 364.957031 231.632812 C 364.226562 234.542969 363.425781 237.433594 362.554688 240.304688 C 361.683594 243.179688 360.742188 246.027344 359.730469 248.851562 C 358.71875 251.679688 357.640625 254.476562 356.492188 257.25 C 355.34375 260.023438 354.128906 262.765625 352.84375 265.480469 C 351.5625 268.191406 350.210938 270.871094 348.796875 273.519531 C 347.382812 276.164062 345.90625 278.773438 344.363281 281.347656 C 342.820312 283.921875 341.214844 286.457031 339.546875 288.953125 C 337.878906 291.449219 336.152344 293.902344 334.363281 296.3125 C 332.574219 298.722656 330.730469 301.085938 328.828125 303.40625 C 326.921875 305.726562 324.964844 308 322.949219 310.222656 C 320.933594 312.445312 318.863281 314.621094 316.742188 316.742188 C 314.621094 318.863281 312.445312 320.933594 310.222656 322.949219 C 308 324.964844 305.726562 326.921875 303.40625 328.828125 C 301.085938 330.730469 298.722656 332.574219 296.3125 334.363281 C 293.902344 336.152344 291.449219 337.878906 288.953125 339.546875 C 286.457031 341.214844 283.921875 342.820312 281.347656 344.363281 C 278.773438 345.90625 276.164062 347.382812 273.519531 348.796875 C 270.871094 350.210938 268.191406 351.5625 265.480469 352.84375 C 262.765625 354.128906 260.023438 355.34375 257.25 356.492188 C 254.476562 357.640625 251.679688 358.71875 248.851562 359.730469 C 246.027344 360.742188 243.179688 361.683594 240.304688 362.554688 C 237.433594 363.425781 234.542969 364.226562 231.632812 364.957031 C 228.722656 365.683594 225.792969 366.339844 222.851562 366.925781 C 219.90625 367.511719 216.949219 368.027344 213.980469 368.464844 C 211.015625 368.90625 208.035156 369.273438 205.050781 369.566406 C 202.0625 369.863281 199.070312 370.082031 196.074219 370.230469 C 193.074219 370.378906 190.078125 370.449219 187.074219 370.449219 C 184.074219 370.449219 181.074219 370.378906 178.078125 370.230469 C 175.082031 370.082031 172.089844 369.863281 169.101562 369.566406 C 166.113281 369.273438 163.136719 368.90625 160.167969 368.464844 C 157.199219 368.027344 154.246094 367.511719 151.300781 366.925781 C 148.359375 366.339844 145.429688 365.683594 142.519531 364.953125 C 139.609375 364.226562 136.714844 363.425781 133.84375 362.554688 C 130.972656 361.683594 128.125 360.742188 125.296875 359.730469 C 122.472656 358.71875 119.671875 357.640625 116.902344 356.492188 C 114.128906 355.34375 111.386719 354.128906 108.671875 352.84375 C 105.960938 351.5625 103.28125 350.210938 100.632812 348.796875 C 97.988281 347.382812 95.375 345.90625 92.800781 344.363281 C 90.226562 342.820312 87.691406 341.214844 85.199219 339.546875 C 82.703125 337.878906 80.25 336.152344 77.839844 334.363281 C 75.429688 332.574219 73.0625 330.730469 70.742188 328.828125 C 68.425781 326.921875 66.152344 324.964844 63.929688 322.949219 C 61.703125 320.933594 59.53125 318.863281 57.410156 316.742188 C 55.289062 314.621094 53.21875 312.445312 51.203125 310.222656 C 49.1875 308 47.230469 305.726562 45.324219 303.40625 C 43.421875 301.085938 41.574219 298.722656 39.789062 296.3125 C 38 293.902344 36.273438 291.449219 34.605469 288.953125 C 32.9375 286.457031 31.332031 283.921875 29.789062 281.347656 C 28.246094 278.773438 26.769531 276.164062 25.351562 273.519531 C 23.9375 270.871094 22.589844 268.191406 21.304688 265.480469 C 20.023438 262.765625 18.808594 260.023438 17.660156 257.25 C 16.511719 254.476562 15.429688 251.679688 14.421875 248.851562 C 13.410156 246.027344 12.46875 243.179688 11.597656 240.304688 C 10.726562 237.433594 9.925781 234.542969 9.195312 231.632812 C 8.46875 228.722656 7.808594 225.792969 7.222656 222.851562 C 6.640625 219.90625 6.125 216.949219 5.683594 213.980469 C 5.246094 211.015625 4.878906 208.035156 4.582031 205.050781 C 4.289062 202.0625 4.070312 199.070312 3.921875 196.074219 C 3.773438 193.074219 3.699219 190.078125 3.699219 187.074219 C 3.699219 184.074219 3.773438 181.074219 3.921875 178.078125 C 4.070312 175.082031 4.289062 172.089844 4.582031 169.101562 C 4.878906 166.113281 5.246094 163.136719 5.683594 160.167969 C 6.125 157.199219 6.640625 154.246094 7.222656 151.300781 C 7.808594 148.359375 8.46875 145.429688 9.195312 142.519531 C 9.925781 139.609375 10.726562 136.714844 11.597656 133.84375 C 12.46875 130.972656 13.410156 128.125 14.421875 125.296875 C 15.429688 122.472656 16.511719 119.671875 17.660156 116.902344 C 18.808594 114.128906 20.023438 111.386719 21.304688 108.671875 C 22.589844 105.960938 23.9375 103.28125 25.351562 100.632812 C 26.769531 97.988281 28.246094 95.375 29.789062 92.800781 C 31.332031 90.226562 32.9375 87.691406 34.605469 85.199219 C 36.273438 82.703125 38 80.25 39.789062 77.839844 C 41.574219 75.429688 43.421875 73.0625 45.324219 70.742188 C 47.230469 68.425781 49.1875 66.152344 51.203125 63.929688 C 53.21875 61.703125 55.289062 59.53125 57.410156 57.410156 C 59.53125 55.289062 61.703125 53.21875 63.929688 51.203125 C 66.152344 49.1875 68.425781 47.230469 70.742188 45.324219 C 73.0625 43.421875 75.429688 41.574219 77.839844 39.789062 C 80.25 38 82.703125 36.273438 85.199219 34.605469 C 87.691406 32.9375 90.226562 31.332031 92.800781 29.789062 C 95.375 28.246094 97.988281 26.769531 100.632812 25.351562 C 103.28125 23.9375 105.960938 22.589844 108.671875 21.304688 C 111.386719 20.023438 114.128906 18.808594 116.902344 17.660156 C 119.671875 16.511719 122.472656 15.429688 125.296875 14.421875 C 128.125 13.410156 130.972656 12.46875 133.84375 11.597656 C 136.714844 10.726562 139.609375 9.925781 142.519531 9.195312 C 145.429688 8.46875 148.359375 7.808594 151.300781 7.222656 C 154.246094 6.640625 157.199219 6.125 160.167969 5.683594 C 163.136719 5.246094 166.113281 4.878906 169.101562 4.582031 C 172.089844 4.289062 175.082031 4.070312 178.078125 3.921875 C 181.074219 3.773438 184.074219 3.699219 187.074219 3.699219 C 190.078125 3.699219 193.074219 3.773438 196.074219 3.921875 C 199.070312 4.070312 202.0625 4.289062 205.050781 4.582031 C 208.035156 4.878906 211.015625 5.246094 213.980469 5.683594 C 216.949219 6.125 219.90625 6.640625 222.851562 7.222656 C 225.792969 7.808594 228.722656 8.46875 231.632812 9.195312 C 234.542969 9.925781 237.433594 10.726562 240.304688 11.597656 C 243.179688 12.46875 246.027344 13.410156 248.851562 14.421875 C 251.679688 15.429688 254.476562 16.511719 257.25 17.660156 C 260.023438 18.808594 262.765625 20.023438 265.480469 21.304688 C 268.191406 22.589844 270.871094 23.9375 273.519531 25.351562 C 276.164062 26.769531 278.773438 28.246094 281.347656 29.789062 C 283.921875 31.332031 286.457031 32.9375 288.953125 34.605469 C 291.449219 36.273438 293.902344 38 296.3125 39.789062 C 298.722656 41.574219 301.085938 43.421875 303.40625 45.324219 C 305.726562 47.230469 308 49.1875 310.222656 51.203125 C 312.445312 53.21875 314.621094 55.289062 316.742188 57.410156 C 318.863281 59.53125 320.933594 61.703125 322.949219 63.929688 C 324.964844 66.152344 326.921875 68.425781 328.828125 70.742188 C 330.730469 73.0625 332.574219 75.429688 334.363281 77.839844 C 336.152344 80.25 337.878906 82.703125 339.546875 85.199219 C 341.214844 87.691406 342.820312 90.226562 344.363281 92.800781 C 345.90625 95.375 347.382812 97.988281 348.796875 100.632812 C 350.210938 103.28125 351.5625 105.960938 352.84375 108.671875 C 354.128906 111.386719 355.34375 114.128906 356.492188 116.902344 C 357.640625 119.671875 358.71875 122.472656 359.730469 125.296875 C 360.742188 128.125 361.683594 130.972656 362.554688 133.84375 C 363.425781 136.714844 364.226562 139.609375 364.957031 142.519531 C 365.683594 145.429688 366.339844 148.359375 366.925781 151.300781 C 367.511719 154.246094 368.027344 157.199219 368.464844 160.167969 C 368.90625 163.136719 369.273438 166.113281 369.566406 169.101562 C 369.863281 172.089844 370.082031 175.082031 370.230469 178.078125 C 370.378906 181.074219 370.449219 184.074219 370.449219 187.074219 Z M 190.421875 118.125 C 212.449219 118.125 228.035156 132.636719 230.054688 152.785156 L 259.738281 152.785156 L 259.738281 150.765625 C 257.582031 115.972656 228.839844 91.8125 190.285156 91.8125 C 142.882812 91.8125 115.351562 123.375 115.351562 175.203125 L 115.351562 199.796875 C 115.351562 251.761719 142.355469 282.386719 190.308594 282.386719 C 228.703125 282.386719 257.46875 259.003906 259.738281 225.835938 L 259.738281 223.703125 L 230.054688 223.703125 C 228.035156 242.777344 212.863281 256.207031 190.421875 256.207031 C 162.367188 256.207031 146.25 235.785156 146.25 199.796875 L 146.25 175.5 C 146.25 139.214844 162.640625 118.125 190.421875 118.125 Z M 190.421875 118.125 " fill-opacity="1" fill-rule="nonzero"/></g></svg>